<svg xmlns="http://www.w3.org/2000/svg" xmlns:xlink="http://www.w3.org/1999/xlink" width="30" zoomAndPan="magnify" viewBox="0 0 112.5 112.499997" height="30" preserveAspectRatio="xMidYMid meet" version="1.0"><defs><clipPath id="d7f72a459d"><path d="M 0 0 L 112.003906 0 L 112.003906 112.003906 L 0 112.003906 Z M 0 0 " clip-rule="nonzero"/></clipPath></defs><g clip-path="url(#d7f72a459d)"><path fill="#8604bc" d="M 0.191406 39.972656 C 0.191406 26.648438 0.191406 13.421875 0.191406 0.191406 C 37.527344 0.191406 74.859375 0.191406 112.195312 0.191406 C 112.195312 37.527344 112.195312 74.859375 112.195312 112.195312 C 74.859375 112.195312 37.527344 112.195312 0.191406 112.195312 C 0.191406 88.152344 0.191406 64.113281 0.191406 39.972656 M 49.773438 79.914062 C 50.304688 79.796875 50.828125 79.601562 51.359375 79.578125 C 52.507812 79.527344 53.476562 79.132812 54.453125 78.394531 C 55.308594 78.371094 55.097656 79 55.085938 79.46875 C 54.9375 86.023438 54.769531 92.578125 54.625 99.128906 C 54.59375 100.402344 54.640625 100.4375 55.890625 100.449219 C 59.167969 100.472656 62.449219 100.484375 65.730469 100.503906 C 66.300781 100.503906 66.871094 100.503906 67.550781 100.503906 C 67.550781 99.980469 67.550781 99.570312 67.550781 99.15625 C 67.5625 83.402344 67.582031 67.644531 67.589844 51.890625 C 67.59375 46.8125 67.558594 41.730469 67.582031 36.503906 C 67.582031 30.660156 67.582031 24.816406 67.582031 18.96875 C 66.398438 18.96875 65.296875 18.96875 64.089844 18.96875 C 64.089844 23.511719 64.089844 27.976562 64.058594 32.488281 C 64.039062 32.542969 64.050781 32.59375 64.121094 32.792969 C 64.109375 33.0625 64.097656 33.332031 63.949219 33.578125 C 63.863281 33.539062 63.746094 33.523438 63.699219 33.457031 C 63.046875 32.589844 63.050781 32.589844 62.429688 33.476562 C 61.121094 35.34375 60.886719 35.457031 59.320312 34.769531 C 59.320312 29.503906 59.320312 24.238281 59.320312 18.964844 C 57.949219 18.964844 56.6875 18.964844 55.347656 18.964844 C 55.347656 23.515625 55.347656 27.988281 55.304688 32.523438 C 55.320312 32.621094 55.332031 32.71875 55.382812 32.996094 C 55.390625 35.015625 55.398438 37.035156 55.40625 39.105469 C 55.40625 39.105469 55.40625 39.152344 55.390625 39.332031 C 55.40625 39.867188 55.417969 40.402344 55.394531 41.117188 C 55.386719 43.894531 55.375 46.671875 55.308594 49.53125 C 55.328125 49.6875 55.347656 49.847656 55.398438 50.179688 C 55.386719 50.839844 55.375 51.496094 55.308594 52.238281 C 55.328125 52.394531 55.34375 52.546875 55.398438 52.882812 C 55.386719 53.796875 55.375 54.714844 55.300781 55.773438 C 55.273438 56.890625 55.222656 58.007812 55.234375 59.125 C 55.246094 60.269531 55.328125 61.414062 55.40625 62.730469 C 55.394531 63.191406 55.382812 63.652344 55.3125 64.160156 C 55.277344 64.195312 55.25 64.234375 55.09375 64.320312 C 54.75 64.320312 54.394531 64.304688 54.527344 64.886719 C 54.527344 64.925781 54.539062 64.960938 54.605469 65.175781 C 54.59375 66.046875 54.582031 66.921875 54.410156 67.78125 C 53.773438 67.722656 53.136719 67.664062 52.460938 67.445312 C 52.410156 66.464844 52.359375 65.484375 52.308594 64.445312 C 48.140625 64.445312 44.058594 64.445312 39.972656 64.304688 C 39.640625 62.980469 39.152344 62.59375 37.894531 62.324219 C 37.449219 62.230469 37.078125 61.78125 36.804688 61.460938 C 37.128906 61.25 37.558594 61.113281 37.761719 60.816406 C 38.753906 59.359375 39.71875 57.882812 40.632812 56.371094 C 43.5 51.621094 46.328125 46.839844 49.207031 42.09375 C 50.027344 40.742188 50.425781 39.363281 50.398438 37.742188 C 50.320312 32.855469 50.386719 27.964844 50.394531 23.078125 C 50.398438 21.671875 50.394531 20.265625 50.394531 18.9375 C 50.289062 18.839844 50.265625 18.804688 50.238281 18.800781 C 47.273438 18.445312 46.828125 18.714844 45.453125 21.277344 C 43.710938 24.53125 41.90625 27.746094 40.125 30.976562 C 37.9375 34.9375 35.757812 38.898438 33.558594 42.851562 C 30.808594 47.789062 28.035156 52.710938 25.289062 57.648438 C 24.617188 58.859375 24.011719 60.109375 23.34375 61.40625 C 23.890625 61.441406 24.304688 61.46875 24.691406 61.621094 C 23.644531 62.347656 22.800781 63.242188 22.242188 64.519531 C 21.503906 64.402344 21.035156 64.683594 20.8125 65.421875 C 20.722656 65.722656 20.496094 65.976562 20.347656 66.261719 C 19.558594 67.789062 18.777344 69.324219 17.875 70.925781 C 17.269531 72.132812 16.660156 73.339844 15.988281 74.660156 C 15.304688 75.949219 14.621094 77.238281 13.917969 78.679688 C 13.71875 79.238281 13.523438 79.796875 13.203125 80.402344 C 12.957031 80.667969 12.640625 80.894531 12.476562 81.203125 C 9.609375 86.65625 6.757812 92.113281 3.90625 97.574219 C 3.421875 98.496094 2.957031 99.421875 2.496094 100.324219 C 7.101562 100.324219 11.628906 100.332031 16.152344 100.300781 C 16.402344 100.296875 16.753906 99.988281 16.882812 99.730469 C 17.894531 97.730469 18.820312 95.683594 19.859375 93.695312 C 21.925781 89.753906 24.058594 85.84375 26.132812 81.902344 C 26.375 81.441406 26.429688 80.882812 26.71875 80.332031 C 26.925781 80.25 27.144531 80.1875 27.332031 80.078125 C 28.183594 79.589844 29.003906 79.175781 30.082031 79.292969 C 30.644531 79.351562 31.269531 78.855469 32.039062 78.582031 C 32.753906 78.605469 33.464844 78.632812 34.222656 78.75 C 34.402344 78.71875 34.582031 78.6875 34.929688 78.621094 C 35.386719 78.628906 35.847656 78.640625 36.335938 78.777344 C 36.617188 79.644531 37.25 79.972656 38.117188 79.941406 C 39.804688 79.882812 41.496094 79.761719 43.183594 79.765625 C 45.332031 79.773438 47.480469 79.878906 49.773438 79.914062 M 78.613281 51.269531 C 78.625 51.300781 78.632812 51.328125 78.628906 51.507812 C 78.648438 51.652344 78.664062 51.796875 78.644531 52.121094 C 78.640625 52.441406 78.636719 52.761719 78.636719 53.085938 C 78.621094 62.269531 78.867188 71.460938 78.171875 80.632812 C 78.027344 82.558594 78.28125 82.753906 80.246094 82.695312 C 80.339844 82.691406 80.433594 82.664062 80.707031 82.683594 C 83.820312 82.683594 86.929688 82.683594 90.125 82.683594 C 90.15625 82.222656 90.203125 81.84375 90.203125 81.46875 C 90.1875 68.253906 90.167969 55.039062 90.144531 41.824219 C 90.144531 40.65625 89.707031 40.152344 88.527344 40.152344 C 85.28125 40.148438 82.035156 40.199219 78.648438 40.191406 C 77.980469 40.121094 78.140625 40.613281 78.15625 40.957031 C 78.3125 44.363281 78.476562 47.769531 78.613281 51.269531 M 89.761719 34.402344 C 89.769531 29.707031 89.753906 25.015625 89.792969 20.324219 C 89.800781 19.371094 89.40625 19.089844 88.53125 19.09375 C 85.316406 19.117188 82.097656 19.105469 78.882812 19.109375 C 78.636719 19.109375 78.386719 19.148438 78.070312 19.171875 C 78.070312 24.320312 78.070312 29.414062 78.070312 34.523438 C 81.933594 34.523438 85.78125 34.523438 89.761719 34.402344 M 78.179688 94.140625 C 78.207031 95.941406 78.214844 97.742188 78.285156 99.539062 C 78.296875 99.851562 78.527344 100.339844 78.757812 100.414062 C 79.386719 100.609375 80.070312 100.695312 80.734375 100.699219 C 83.820312 100.710938 86.910156 100.683594 90 100.664062 C 90.238281 100.664062 90.480469 100.613281 90.703125 100.589844 C 90.703125 96.121094 90.703125 91.726562 90.703125 87.265625 C 90.335938 87.265625 90.019531 87.265625 89.703125 87.265625 C 86.546875 87.28125 83.394531 87.300781 80.242188 87.308594 C 78.550781 87.3125 78.386719 87.386719 78.265625 89.125 C 78.152344 90.726562 78.199219 92.339844 78.179688 94.140625 M 56.484375 105.015625 C 51.632812 105.035156 46.78125 105.066406 41.933594 105.0625 C 41.304688 105.0625 40.941406 105.207031 40.941406 105.875 C 40.9375 107.363281 40.941406 108.851562 40.941406 110.347656 C 41.164062 110.375 41.292969 110.402344 41.417969 110.402344 C 45.914062 110.390625 50.414062 110.382812 54.910156 110.351562 C 55.316406 110.347656 55.773438 110.300781 56.125 110.117188 C 56.878906 109.722656 57.535156 109.722656 58.277344 110.167969 C 58.917969 110.550781 59.523438 110.269531 59.550781 109.578125 C 59.617188 108.082031 59.570312 106.582031 59.570312 105.015625 C 58.53125 105.015625 57.605469 105.015625 56.484375 105.015625 M 48.179688 6.28125 C 52.320312 6.28125 56.460938 6.28125 60.644531 6.28125 C 60.644531 4.640625 60.644531 3.140625 60.644531 1.625 C 54.058594 1.625 47.539062 1.625 40.984375 1.625 C 40.984375 3.195312 40.984375 4.710938 40.984375 6.285156 C 43.363281 6.285156 45.675781 6.285156 48.179688 6.28125 M 71.445312 14.835938 C 71.699219 14.839844 71.957031 14.863281 72.214844 14.847656 C 73.285156 14.792969 74.25 14.046875 74.5 13.089844 C 74.816406 11.894531 74.433594 10.699219 73.542969 10.078125 C 72.707031 9.496094 71.203125 9.449219 70.34375 10.03125 C 69.4375 10.648438 69.105469 11.582031 69.203125 12.632812 C 69.316406 13.871094 70.0625 14.589844 71.445312 14.835938 M 66.09375 12.714844 C 66.09375 11.769531 66.09375 10.824219 66.09375 9.8125 C 64.828125 9.8125 63.613281 9.808594 62.402344 9.816406 C 62.183594 9.816406 61.96875 9.851562 61.640625 9.878906 C 61.640625 10.539062 61.628906 11.171875 61.644531 11.800781 C 61.664062 12.628906 61.386719 13.804688 61.816406 14.191406 C 62.308594 14.636719 63.433594 14.433594 64.28125 14.421875 C 66.113281 14.398438 65.691406 14.746094 66.09375 12.714844 M 48.960938 13.929688 C 50.121094 13.988281 51.285156 14.050781 52.375 14.105469 C 52.375 12.652344 52.375 11.390625 52.375 10.019531 C 50.960938 10.019531 49.683594 9.992188 48.40625 10.042969 C 48.179688 10.050781 47.800781 10.347656 47.777344 10.546875 C 47.640625 11.710938 47.585938 12.882812 47.492188 14.15625 C 48.011719 14.105469 48.414062 14.066406 48.960938 13.929688 M 40.855469 10.253906 C 39.5625 10.195312 38.273438 10.113281 36.980469 10.113281 C 36.835938 10.113281 36.574219 10.585938 36.570312 10.84375 C 36.554688 11.835938 36.582031 12.832031 36.691406 13.820312 C 36.714844 14.046875 37.097656 14.398438 37.335938 14.414062 C 38.296875 14.484375 39.261719 14.4375 40.222656 14.449219 C 40.753906 14.457031 40.976562 14.214844 40.964844 13.6875 C 40.9375 12.597656 40.933594 11.507812 40.855469 10.253906 M 81.914062 13.167969 C 83.140625 14.460938 85.023438 14.582031 86.199219 13.429688 C 86.835938 12.800781 86.953125 12.015625 86.710938 11.195312 C 86.464844 10.378906 85.738281 10.488281 85.105469 10.46875 C 84.589844 10.453125 84.074219 10.445312 83.5625 10.457031 C 81.929688 10.496094 81.289062 11.464844 81.914062 13.167969 M 26.46875 14.003906 C 27.316406 14.609375 28.167969 14.535156 28.957031 13.929688 C 29.722656 13.347656 29.917969 12.515625 29.699219 11.605469 C 29.472656 10.675781 28.855469 10.117188 27.910156 9.945312 C 26.964844 9.78125 26.128906 10.210938 25.679688 11.082031 C 25.195312 12.023438 25.445312 13.074219 26.46875 14.003906 Z M 26.46875 14.003906 " fill-opacity="1" fill-rule="nonzero"/></g><path fill="#fdfdfc" d="M 55.363281 52.152344 C 55.375 51.496094 55.386719 50.839844 55.398438 50.023438 C 55.386719 49.726562 55.375 49.585938 55.363281 49.445312 C 55.375 46.671875 55.386719 43.894531 55.472656 41.003906 C 56.664062 40.273438 57.773438 39.648438 58.886719 39.039062 C 58.988281 38.984375 59.140625 39.015625 59.296875 39.078125 C 59.621094 39.214844 59.914062 39.328125 60.207031 39.332031 C 61.503906 39.359375 62.800781 39.351562 64.128906 39.417969 C 64.765625 40.355469 65.5625 40.414062 66.105469 39.542969 C 66.570312 38.792969 67.253906 38.042969 66.699219 36.957031 C 67.023438 36.839844 67.285156 36.746094 67.542969 36.652344 C 67.558594 41.730469 67.59375 46.8125 67.589844 51.890625 C 67.582031 67.644531 67.5625 83.402344 67.550781 99.15625 C 67.550781 99.570312 67.550781 99.980469 67.550781 100.503906 C 66.871094 100.503906 66.300781 100.503906 65.730469 100.503906 C 62.449219 100.484375 59.167969 100.472656 55.890625 100.449219 C 54.640625 100.4375 54.59375 100.402344 54.625 99.128906 C 54.769531 92.578125 54.9375 86.023438 55.085938 79.46875 C 55.097656 79 55.308594 78.371094 54.386719 78.28125 C 54.3125 76.769531 54.304688 75.371094 54.34375 73.941406 C 54.476562 73.859375 54.5625 73.804688 54.734375 73.753906 C 55.40625 73.753906 55.992188 73.75 56.664062 73.757812 C 57.726562 73.765625 58.703125 73.761719 59.765625 73.769531 C 61.765625 73.78125 63.675781 73.78125 65.59375 73.78125 C 65.59375 72.191406 65.59375 70.796875 65.59375 69.484375 C 63.691406 69.484375 61.875 69.484375 60.015625 69.429688 C 59.796875 69.382812 59.621094 69.390625 59.367188 69.390625 C 59.035156 69.398438 58.78125 69.410156 58.457031 69.398438 C 58.242188 69.378906 58.097656 69.382812 57.875 69.363281 C 57.644531 69.355469 57.492188 69.363281 57.261719 69.363281 C 56.792969 69.390625 56.398438 69.425781 55.953125 69.4375 C 55.796875 69.40625 55.6875 69.402344 55.5 69.390625 C 55.164062 69.371094 54.90625 69.359375 54.636719 69.265625 C 54.605469 68.714844 54.589844 68.253906 54.570312 67.792969 C 54.582031 66.921875 54.59375 66.046875 54.601562 65.054688 C 54.601562 64.890625 54.585938 64.855469 54.542969 64.835938 C 54.394531 64.304688 54.75 64.320312 55.210938 64.300781 C 55.390625 64.238281 55.40625 64.183594 55.367188 64.117188 C 55.382812 63.652344 55.394531 63.191406 55.410156 62.554688 C 55.394531 60.128906 55.378906 57.878906 55.363281 55.628906 C 55.375 54.714844 55.386719 53.796875 55.398438 52.726562 C 55.386719 52.429688 55.375 52.292969 55.363281 52.152344 Z M 55.363281 52.152344 " fill-opacity="1" fill-rule="nonzero"/><path fill="#fdfdfd" d="M 24.71875 61.496094 C 24.304688 61.46875 23.890625 61.441406 23.34375 61.40625 C 24.011719 60.109375 24.617188 58.859375 25.289062 57.648438 C 28.035156 52.710938 30.808594 47.789062 33.558594 42.851562 C 35.757812 38.898438 37.9375 34.9375 40.125 30.976562 C 41.90625 27.746094 43.710938 24.53125 45.453125 21.277344 C 46.828125 18.714844 47.273438 18.445312 50.238281 18.800781 C 50.265625 18.804688 50.289062 18.839844 50.394531 18.9375 C 50.394531 20.265625 50.398438 21.671875 50.394531 23.078125 C 50.386719 27.964844 50.320312 32.855469 50.398438 37.742188 C 50.425781 39.363281 50.027344 40.742188 49.207031 42.09375 C 46.328125 46.839844 43.5 51.621094 40.632812 56.371094 C 39.71875 57.882812 38.753906 59.359375 37.761719 60.816406 C 37.558594 61.113281 37.128906 61.25 36.664062 61.457031 C 32.585938 61.46875 28.652344 61.484375 24.71875 61.496094 Z M 24.71875 61.496094 " fill-opacity="1" fill-rule="nonzero"/><path fill="#fdfdfd" d="M 78.789062 40.226562 C 82.035156 40.199219 85.28125 40.148438 88.527344 40.152344 C 89.707031 40.152344 90.144531 40.65625 90.144531 41.824219 C 90.167969 55.039062 90.1875 68.253906 90.203125 81.46875 C 90.203125 81.84375 90.15625 82.222656 90.125 82.683594 C 86.929688 82.683594 83.820312 82.683594 80.617188 82.578125 C 80.589844 81.222656 80.699219 79.972656 80.707031 78.722656 C 80.734375 75.347656 80.738281 71.972656 80.707031 68.597656 C 80.6875 66.351562 80.574219 64.105469 80.53125 61.859375 C 80.503906 60.226562 80.527344 58.597656 80.566406 56.90625 C 80.511719 54.386719 80.457031 51.925781 80.320312 49.46875 C 80.21875 47.644531 80.09375 45.8125 79.8125 44.011719 C 79.613281 42.726562 79.140625 41.484375 78.789062 40.226562 Z M 78.789062 40.226562 " fill-opacity="1" fill-rule="nonzero"/><path fill="#fcfcfc" d="M 26.574219 80.367188 C 26.429688 80.882812 26.375 81.441406 26.132812 81.902344 C 24.058594 85.84375 21.925781 89.753906 19.859375 93.695312 C 18.820312 95.683594 17.894531 97.730469 16.882812 99.730469 C 16.753906 99.988281 16.402344 100.296875 16.152344 100.300781 C 11.628906 100.332031 7.101562 100.324219 2.496094 100.324219 C 2.957031 99.421875 3.421875 98.496094 3.90625 97.574219 C 6.757812 92.113281 9.609375 86.65625 12.476562 81.203125 C 12.640625 80.894531 12.957031 80.667969 13.351562 80.402344 C 17.859375 80.390625 22.214844 80.378906 26.574219 80.367188 Z M 26.574219 80.367188 " fill-opacity="1" fill-rule="nonzero"/><path fill="#fcfdfc" d="M 39.976562 64.445312 C 44.058594 64.445312 48.140625 64.445312 52.308594 64.445312 C 52.359375 65.484375 52.410156 66.464844 52.457031 67.601562 C 52.453125 68.242188 52.445312 68.726562 52.386719 69.21875 C 52.269531 69.257812 52.203125 69.289062 52.050781 69.300781 C 48.609375 69.304688 45.257812 69.320312 41.824219 69.324219 C 41.277344 69.320312 40.816406 69.328125 40.273438 69.324219 C 39.863281 69.316406 39.53125 69.324219 39.117188 69.320312 C 38.628906 69.3125 38.222656 69.3125 37.652344 69.3125 C 37.726562 70.847656 37.792969 72.253906 37.863281 73.742188 C 38.332031 73.742188 38.675781 73.742188 39.105469 73.753906 C 39.894531 73.742188 40.597656 73.714844 41.382812 73.699219 C 41.933594 73.675781 42.40625 73.636719 42.957031 73.613281 C 45.621094 73.671875 48.203125 73.71875 50.871094 73.785156 C 51.464844 73.808594 51.972656 73.8125 52.496094 73.859375 C 52.515625 73.902344 52.578125 73.960938 52.574219 74.050781 C 52.566406 74.878906 52.566406 75.613281 52.566406 76.351562 C 52.570312 78.4375 52.570312 78.4375 50.507812 78.578125 C 46.808594 78.566406 43.199219 78.570312 39.558594 78.519531 C 39.226562 78.5 38.921875 78.539062 38.539062 78.59375 C 38.195312 78.601562 37.925781 78.589844 37.632812 78.523438 C 37.363281 78.503906 37.121094 78.535156 36.816406 78.582031 C 36.667969 78.585938 36.585938 78.578125 36.480469 78.503906 C 36.132812 77.789062 35.511719 77.398438 35.753906 76.347656 C 35.976562 75.382812 36.378906 73.847656 34.695312 73.3125 C 34.566406 73.273438 34.515625 73.03125 34.386719 72.953125 C 33.363281 72.308594 32.914062 70.703125 31.195312 71.066406 C 30.714844 71.070312 30.316406 71.074219 29.832031 71.074219 C 28.066406 71.070312 26.394531 71.066406 24.628906 71.0625 C 23.699219 71.058594 22.859375 71.054688 21.933594 71.046875 C 20.566406 70.976562 19.277344 70.917969 17.992188 70.855469 C 18.777344 69.324219 19.558594 67.789062 20.347656 66.261719 C 20.496094 65.976562 20.722656 65.722656 20.8125 65.421875 C 21.035156 64.683594 21.503906 64.402344 22.410156 64.519531 C 28.375 64.496094 34.175781 64.46875 39.976562 64.445312 Z M 39.976562 64.445312 " fill-opacity="1" fill-rule="nonzero"/><path fill="#fdfdfc" d="M 89.695312 34.460938 C 85.78125 34.523438 81.933594 34.523438 78.070312 34.523438 C 78.070312 29.414062 78.070312 24.320312 78.070312 19.171875 C 78.386719 19.148438 78.636719 19.109375 78.882812 19.109375 C 82.097656 19.105469 85.316406 19.117188 88.53125 19.09375 C 89.40625 19.089844 89.800781 19.371094 89.792969 20.324219 C 89.753906 25.015625 89.769531 29.707031 89.695312 34.460938 Z M 89.695312 34.460938 " fill-opacity="1" fill-rule="nonzero"/><path fill="#fcfcfc" d="M 78.179688 94.042969 C 78.199219 92.339844 78.152344 90.726562 78.265625 89.125 C 78.386719 87.386719 78.550781 87.3125 80.242188 87.308594 C 83.394531 87.300781 86.546875 87.28125 89.703125 87.265625 C 90.019531 87.265625 90.335938 87.265625 90.703125 87.265625 C 90.703125 91.726562 90.703125 96.121094 90.703125 100.589844 C 90.480469 100.613281 90.238281 100.664062 90 100.664062 C 86.910156 100.683594 83.820312 100.710938 80.734375 100.699219 C 80.070312 100.695312 79.386719 100.609375 78.757812 100.414062 C 78.527344 100.339844 78.296875 99.851562 78.285156 99.539062 C 78.214844 97.742188 78.207031 95.941406 78.179688 94.042969 Z M 78.179688 94.042969 " fill-opacity="1" fill-rule="nonzero"/><path fill="#fcfafc" d="M 56.578125 105.015625 C 57.605469 105.015625 58.53125 105.015625 59.570312 105.015625 C 59.570312 106.582031 59.617188 108.082031 59.550781 109.578125 C 59.523438 110.269531 58.917969 110.550781 58.277344 110.167969 C 57.535156 109.722656 56.878906 109.722656 56.125 110.117188 C 55.773438 110.300781 55.316406 110.347656 54.910156 110.351562 C 50.414062 110.382812 45.914062 110.390625 41.417969 110.402344 C 41.292969 110.402344 41.164062 110.375 40.941406 110.347656 C 40.941406 108.851562 40.9375 107.363281 40.941406 105.875 C 40.941406 105.207031 41.304688 105.0625 41.933594 105.0625 C 46.78125 105.066406 51.632812 105.035156 56.578125 105.015625 Z M 56.578125 105.015625 " fill-opacity="1" fill-rule="nonzero"/><path fill="#faf8fc" d="M 48.082031 6.285156 C 45.675781 6.285156 43.363281 6.285156 40.984375 6.285156 C 40.984375 4.710938 40.984375 3.195312 40.984375 1.625 C 47.539062 1.625 54.058594 1.625 60.644531 1.625 C 60.644531 3.140625 60.644531 4.640625 60.644531 6.28125 C 56.460938 6.28125 52.320312 6.28125 48.082031 6.285156 Z M 48.082031 6.285156 " fill-opacity="1" fill-rule="nonzero"/><path fill="#fcfef9" d="M 59.265625 39.007812 C 59.140625 39.015625 58.988281 38.984375 58.886719 39.039062 C 57.773438 39.648438 56.664062 40.273438 55.492188 40.914062 C 55.417969 40.402344 55.40625 39.867188 55.441406 39.246094 C 55.460938 39.125 55.433594 39.089844 55.40625 39.054688 C 55.398438 37.035156 55.390625 35.015625 55.382812 32.847656 C 55.371094 32.617188 55.359375 32.535156 55.347656 32.457031 C 55.347656 27.988281 55.347656 23.515625 55.347656 18.964844 C 56.6875 18.964844 57.949219 18.964844 59.320312 18.964844 C 59.320312 24.238281 59.320312 29.503906 59.320312 34.949219 C 59.300781 36.417969 59.285156 37.714844 59.265625 39.007812 Z M 59.265625 39.007812 " fill-opacity="1" fill-rule="nonzero"/><path fill="#fafbf6" d="M 67.5625 36.578125 C 67.285156 36.746094 67.023438 36.839844 66.699219 36.957031 C 67.253906 38.042969 66.570312 38.792969 66.105469 39.542969 C 65.5625 40.414062 64.765625 40.355469 64.140625 39.332031 C 64.109375 37.320312 64.097656 35.460938 64.082031 33.597656 C 64.097656 33.332031 64.109375 33.0625 64.121094 32.664062 C 64.109375 32.507812 64.097656 32.476562 64.089844 32.445312 C 64.089844 27.976562 64.089844 23.511719 64.089844 18.96875 C 65.296875 18.96875 66.398438 18.96875 67.582031 18.96875 C 67.582031 24.816406 67.582031 30.660156 67.5625 36.578125 Z M 67.5625 36.578125 " fill-opacity="1" fill-rule="nonzero"/><path fill="#f3f2ef" d="M 80.527344 56.964844 C 80.527344 58.597656 80.503906 60.226562 80.53125 61.859375 C 80.574219 64.105469 80.6875 66.351562 80.707031 68.597656 C 80.738281 71.972656 80.734375 75.347656 80.707031 78.722656 C 80.699219 79.972656 80.589844 81.222656 80.527344 82.558594 C 80.433594 82.664062 80.339844 82.691406 80.246094 82.695312 C 78.28125 82.753906 78.027344 82.558594 78.171875 80.632812 C 78.867188 71.460938 78.621094 62.269531 78.636719 53.085938 C 78.636719 52.761719 78.640625 52.441406 78.722656 52.050781 C 79.578125 52.417969 79.851562 53.117188 79.960938 53.972656 C 80.089844 54.976562 80.332031 55.96875 80.527344 56.964844 Z M 80.527344 56.964844 " fill-opacity="1" fill-rule="nonzero"/><path fill="#f6f9f7" d="M 31.28125 71.066406 C 32.914062 70.703125 33.363281 72.308594 34.386719 72.953125 C 34.515625 73.03125 34.566406 73.273438 34.695312 73.3125 C 36.378906 73.847656 35.976562 75.382812 35.753906 76.347656 C 35.511719 77.398438 36.132812 77.789062 36.433594 78.527344 C 36.367188 78.621094 36.335938 78.636719 36.304688 78.652344 C 35.847656 78.640625 35.386719 78.628906 34.773438 78.621094 C 34.46875 78.632812 34.324219 78.644531 34.175781 78.65625 C 33.464844 78.632812 32.753906 78.605469 31.863281 78.574219 C 26.859375 78.546875 22.027344 78.523438 17.195312 78.429688 C 17.007812 76.921875 17.195312 76.40625 18.101562 76.082031 C 18.484375 75.945312 18.90625 75.929688 19.386719 75.859375 C 19.796875 75.808594 20.132812 75.753906 20.519531 75.734375 C 20.734375 75.808594 20.894531 75.847656 21.140625 75.882812 C 21.550781 75.882812 21.875 75.882812 22.273438 75.925781 C 25.148438 76.128906 27.953125 76.324219 30.761719 76.433594 C 31.351562 76.457031 31.96875 76.230469 32.542969 76.039062 C 33.449219 75.738281 33.8125 74.851562 33.324219 74.035156 C 32.898438 73.324219 32.320312 72.703125 31.835938 72.027344 C 31.621094 71.730469 31.464844 71.386719 31.28125 71.066406 Z M 31.28125 71.066406 " fill-opacity="1" fill-rule="nonzero"/><path fill="#910ac5" d="M 39.972656 64.375 C 34.175781 64.46875 28.375 64.496094 22.488281 64.503906 C 22.800781 63.242188 23.644531 62.347656 24.703125 61.558594 C 28.652344 61.484375 32.585938 61.46875 36.597656 61.476562 C 37.078125 61.78125 37.449219 62.230469 37.894531 62.324219 C 39.152344 62.59375 39.640625 62.980469 39.972656 64.375 Z M 39.972656 64.375 " fill-opacity="1" fill-rule="nonzero"/><path fill="#8e01c7" d="M 17.199219 78.5 C 22.027344 78.523438 26.859375 78.546875 31.777344 78.589844 C 31.269531 78.855469 30.644531 79.351562 30.082031 79.292969 C 29.003906 79.175781 28.183594 79.589844 27.332031 80.078125 C 27.144531 80.1875 26.925781 80.25 26.644531 80.347656 C 22.214844 80.378906 17.859375 80.390625 13.414062 80.378906 C 13.523438 79.796875 13.71875 79.238281 14.015625 78.617188 C 15.140625 78.535156 16.171875 78.519531 17.199219 78.5 Z M 17.199219 78.5 " fill-opacity="1" fill-rule="nonzero"/><path fill="#8f0ec0" d="M 64.015625 33.589844 C 64.097656 35.460938 64.109375 37.320312 64.109375 39.269531 C 62.800781 39.351562 61.503906 39.359375 60.207031 39.332031 C 59.914062 39.328125 59.621094 39.214844 59.296875 39.078125 C 59.285156 37.714844 59.300781 36.417969 59.335938 35.035156 C 60.886719 35.457031 61.121094 35.34375 62.429688 33.476562 C 63.050781 32.589844 63.046875 32.589844 63.699219 33.457031 C 63.746094 33.523438 63.863281 33.539062 64.015625 33.589844 Z M 64.015625 33.589844 " fill-opacity="1" fill-rule="nonzero"/><path fill="#ba1df7" d="M 71.363281 14.828125 C 70.0625 14.589844 69.316406 13.871094 69.203125 12.632812 C 69.105469 11.582031 69.4375 10.648438 70.34375 10.03125 C 71.203125 9.449219 72.707031 9.496094 73.542969 10.078125 C 74.433594 10.699219 74.816406 11.894531 74.5 13.089844 C 74.25 14.046875 73.285156 14.792969 72.214844 14.847656 C 71.957031 14.863281 71.699219 14.839844 71.363281 14.828125 Z M 71.363281 14.828125 " fill-opacity="1" fill-rule="nonzero"/><path fill="#dca1fc" d="M 17.933594 70.890625 C 19.277344 70.917969 20.566406 70.976562 21.9375 71.117188 C 22.355469 71.71875 22.703125 72.226562 23.019531 72.753906 C 23.191406 73.035156 23.511719 73.460938 23.417969 73.621094 C 23.238281 73.929688 22.839844 74.242188 22.488281 74.300781 C 21.582031 74.453125 20.648438 74.445312 19.730469 74.554688 C 19.386719 74.59375 19.0625 74.789062 18.65625 74.914062 C 18.441406 74.914062 18.296875 74.914062 18.132812 74.863281 C 17.925781 74.796875 17.746094 74.78125 17.484375 74.761719 C 16.957031 74.683594 16.507812 74.613281 16.054688 74.542969 C 16.660156 73.339844 17.269531 72.132812 17.933594 70.890625 Z M 17.933594 70.890625 " fill-opacity="1" fill-rule="nonzero"/><path fill="#faf8fc" d="M 66.085938 12.800781 C 65.691406 14.746094 66.113281 14.398438 64.28125 14.421875 C 63.433594 14.433594 62.308594 14.636719 61.816406 14.191406 C 61.386719 13.804688 61.664062 12.628906 61.644531 11.800781 C 61.628906 11.171875 61.640625 10.539062 61.640625 9.878906 C 61.96875 9.851562 62.183594 9.816406 62.402344 9.816406 C 63.613281 9.808594 64.828125 9.8125 66.09375 9.8125 C 66.09375 10.824219 66.09375 11.769531 66.085938 12.800781 Z M 66.085938 12.800781 " fill-opacity="1" fill-rule="nonzero"/><path fill="#f6f9f7" d="M 80.566406 56.90625 C 80.332031 55.96875 80.089844 54.976562 79.960938 53.972656 C 79.851562 53.117188 79.578125 52.417969 78.742188 51.964844 C 78.664062 51.796875 78.648438 51.652344 78.652344 51.410156 C 78.6875 51.265625 78.675781 51.21875 78.640625 51.175781 C 78.476562 47.769531 78.3125 44.363281 78.15625 40.957031 C 78.140625 40.613281 77.980469 40.121094 78.71875 40.210938 C 79.140625 41.484375 79.613281 42.726562 79.8125 44.011719 C 80.09375 45.8125 80.21875 47.644531 80.320312 49.46875 C 80.457031 51.925781 80.511719 54.386719 80.566406 56.90625 Z M 80.566406 56.90625 " fill-opacity="1" fill-rule="nonzero"/><path fill="#f6f9f7" d="M 48.890625 13.980469 C 48.414062 14.066406 48.011719 14.105469 47.492188 14.15625 C 47.585938 12.882812 47.640625 11.710938 47.777344 10.546875 C 47.800781 10.347656 48.179688 10.050781 48.40625 10.042969 C 49.683594 9.992188 50.960938 10.019531 52.375 10.019531 C 52.375 11.390625 52.375 12.652344 52.375 14.105469 C 51.285156 14.050781 50.121094 13.988281 48.890625 13.980469 Z M 48.890625 13.980469 " fill-opacity="1" fill-rule="nonzero"/><path fill="#c622fd" d="M 40.886719 10.335938 C 40.933594 11.507812 40.9375 12.597656 40.964844 13.6875 C 40.976562 14.214844 40.753906 14.457031 40.222656 14.449219 C 39.261719 14.4375 38.296875 14.484375 37.335938 14.414062 C 37.097656 14.398438 36.714844 14.046875 36.691406 13.820312 C 36.582031 12.832031 36.554688 11.835938 36.570312 10.84375 C 36.574219 10.585938 36.835938 10.113281 36.980469 10.113281 C 38.273438 10.113281 39.5625 10.195312 40.886719 10.335938 Z M 40.886719 10.335938 " fill-opacity="1" fill-rule="nonzero"/><path fill="#910ac5" d="M 36.320312 78.714844 C 36.335938 78.636719 36.367188 78.621094 36.449219 78.589844 C 36.585938 78.578125 36.667969 78.585938 36.894531 78.601562 C 37.242188 78.597656 37.449219 78.585938 37.65625 78.578125 C 37.925781 78.589844 38.195312 78.601562 38.621094 78.613281 C 39.050781 78.601562 39.320312 78.589844 39.589844 78.578125 C 43.199219 78.570312 46.808594 78.566406 50.5 78.644531 C 50.261719 79.136719 49.945312 79.539062 49.628906 79.941406 C 47.480469 79.878906 45.332031 79.773438 43.183594 79.765625 C 41.496094 79.761719 39.804688 79.882812 38.117188 79.941406 C 37.25 79.972656 36.617188 79.644531 36.320312 78.714844 Z M 36.320312 78.714844 " fill-opacity="1" fill-rule="nonzero"/><path fill="#f18bda" d="M 81.875 13.109375 C 81.289062 11.464844 81.929688 10.496094 83.5625 10.457031 C 84.074219 10.445312 84.589844 10.453125 85.105469 10.46875 C 85.738281 10.488281 86.464844 10.378906 86.710938 11.195312 C 86.953125 12.015625 86.835938 12.800781 86.199219 13.429688 C 85.023438 14.582031 83.140625 14.460938 81.875 13.109375 Z M 81.875 13.109375 " fill-opacity="1" fill-rule="nonzero"/><path fill="#fb90e2" d="M 26.410156 13.960938 C 25.445312 13.074219 25.195312 12.023438 25.679688 11.082031 C 26.128906 10.210938 26.964844 9.78125 27.910156 9.945312 C 28.855469 10.117188 29.472656 10.675781 29.699219 11.605469 C 29.917969 12.515625 29.722656 13.347656 28.957031 13.929688 C 28.167969 14.535156 27.316406 14.609375 26.410156 13.960938 Z M 26.410156 13.960938 " fill-opacity="1" fill-rule="nonzero"/><path fill="#a408de" d="M 52.441406 69.207031 C 52.445312 68.726562 52.453125 68.242188 52.480469 67.679688 C 53.136719 67.664062 53.773438 67.722656 54.492188 67.789062 C 54.589844 68.253906 54.605469 68.714844 54.632812 69.351562 C 54.644531 70.933594 54.644531 72.339844 54.648438 73.746094 C 54.5625 73.804688 54.476562 73.859375 54.257812 73.941406 C 53.609375 73.964844 53.09375 73.960938 52.578125 73.960938 C 52.578125 73.960938 52.515625 73.902344 52.503906 73.777344 C 52.507812 73.371094 52.519531 73.089844 52.539062 72.714844 C 52.511719 71.484375 52.476562 70.347656 52.441406 69.207031 Z M 52.441406 69.207031 " fill-opacity="1" fill-rule="nonzero"/><path fill="#8e01c7" d="M 52.574219 74.050781 C 53.09375 73.960938 53.609375 73.964844 54.210938 73.96875 C 54.304688 75.371094 54.3125 76.769531 54.304688 78.257812 C 53.476562 79.132812 52.507812 79.527344 51.359375 79.578125 C 50.828125 79.601562 50.304688 79.796875 49.703125 79.929688 C 49.945312 79.539062 50.261719 79.136719 50.585938 78.664062 C 52.570312 78.4375 52.570312 78.4375 52.566406 76.351562 C 52.566406 75.613281 52.566406 74.878906 52.574219 74.050781 Z M 52.574219 74.050781 " fill-opacity="1" fill-rule="nonzero"/><path fill="#e6ddec" d="M 16.019531 74.601562 C 16.507812 74.613281 16.957031 74.683594 17.511719 74.8125 C 17.796875 74.957031 17.972656 75.039062 18.195312 75.171875 C 18.59375 75.4375 18.953125 75.648438 19.3125 75.859375 C 18.90625 75.929688 18.484375 75.945312 18.101562 76.082031 C 17.195312 76.40625 17.007812 76.921875 17.195312 78.429688 C 16.171875 78.519531 15.140625 78.535156 14.027344 78.539062 C 14.621094 77.238281 15.304688 75.949219 16.019531 74.601562 Z M 16.019531 74.601562 " fill-opacity="1" fill-rule="nonzero"/><path fill="#8f0ec0" d="M 55.332031 55.699219 C 55.378906 57.878906 55.394531 60.128906 55.394531 62.46875 C 55.328125 61.414062 55.246094 60.269531 55.234375 59.125 C 55.222656 58.007812 55.273438 56.890625 55.332031 55.699219 Z M 55.332031 55.699219 " fill-opacity="1" fill-rule="nonzero"/><path fill="#910ac5" d="M 34.199219 78.703125 C 34.324219 78.644531 34.46875 78.632812 34.6875 78.636719 C 34.582031 78.6875 34.402344 78.71875 34.199219 78.703125 Z M 34.199219 78.703125 " fill-opacity="1" fill-rule="nonzero"/><path fill="#8f0ec0" d="M 55.335938 52.195312 C 55.375 52.292969 55.386719 52.429688 55.382812 52.636719 C 55.34375 52.546875 55.328125 52.394531 55.335938 52.195312 Z M 55.335938 52.195312 " fill-opacity="1" fill-rule="nonzero"/><path fill="#8f0ec0" d="M 55.335938 49.488281 C 55.375 49.585938 55.386719 49.726562 55.382812 49.933594 C 55.347656 49.847656 55.328125 49.6875 55.335938 49.488281 Z M 55.335938 49.488281 " fill-opacity="1" fill-rule="nonzero"/><path fill="#8f0ec0" d="M 55.328125 32.488281 C 55.359375 32.535156 55.371094 32.617188 55.367188 32.757812 C 55.332031 32.71875 55.320312 32.621094 55.328125 32.488281 Z M 55.328125 32.488281 " fill-opacity="1" fill-rule="nonzero"/><path fill="#8f0ec0" d="M 55.339844 64.136719 C 55.40625 64.183594 55.390625 64.238281 55.277344 64.277344 C 55.25 64.234375 55.277344 64.195312 55.339844 64.136719 Z M 55.339844 64.136719 " fill-opacity="1" fill-rule="nonzero"/><path fill="#a408de" d="M 54.535156 64.863281 C 54.585938 64.855469 54.601562 64.890625 54.582031 64.960938 C 54.539062 64.960938 54.527344 64.925781 54.535156 64.863281 Z M 54.535156 64.863281 " fill-opacity="1" fill-rule="nonzero"/><path fill="#f3f2ef" d="M 78.625 51.222656 C 78.675781 51.21875 78.6875 51.265625 78.660156 51.339844 C 78.632812 51.328125 78.625 51.300781 78.625 51.222656 Z M 78.625 51.222656 " fill-opacity="1" fill-rule="nonzero"/><path fill="#8f0ec0" d="M 55.40625 39.078125 C 55.433594 39.089844 55.460938 39.125 55.449219 39.15625 C 55.40625 39.152344 55.40625 39.105469 55.40625 39.078125 Z M 55.40625 39.078125 " fill-opacity="1" fill-rule="nonzero"/><path fill="#8f0ec0" d="M 64.074219 32.464844 C 64.097656 32.476562 64.109375 32.507812 64.105469 32.585938 C 64.050781 32.59375 64.039062 32.542969 64.074219 32.464844 Z M 64.074219 32.464844 " fill-opacity="1" fill-rule="nonzero"/><path fill="#b80ff8" d="M 60.058594 69.484375 C 61.875 69.484375 63.691406 69.484375 65.59375 69.484375 C 65.59375 70.796875 65.59375 72.191406 65.59375 73.78125 C 63.675781 73.78125 61.765625 73.78125 59.765625 73.714844 C 59.675781 73.578125 59.675781 73.507812 59.730469 73.4375 C 60.074219 73.046875 60.367188 72.65625 60.808594 72.058594 C 60.019531 72.058594 59.59375 72.058594 59.109375 72.058594 C 59.109375 71.6875 59.109375 71.378906 59.167969 71.039062 C 59.507812 70.835938 59.785156 70.65625 60.117188 70.433594 C 60.128906 70.085938 60.09375 69.785156 60.058594 69.484375 Z M 60.058594 69.484375 " fill-opacity="1" fill-rule="nonzero"/><path fill="#ba1df7" d="M 54.734375 73.753906 C 54.644531 72.339844 54.644531 70.933594 54.644531 69.441406 C 54.90625 69.359375 55.164062 69.371094 55.503906 69.460938 C 55.5 69.917969 55.34375 70.296875 55.351562 70.671875 C 55.378906 71.5625 55.15625 72.542969 56.101562 73.214844 C 56.300781 73.394531 56.4375 73.566406 56.574219 73.742188 C 55.992188 73.75 55.40625 73.753906 54.734375 73.753906 Z M 54.734375 73.753906 " fill-opacity="1" fill-rule="nonzero"/><path fill="#d26df2" d="M 56.039062 73.210938 C 55.15625 72.542969 55.378906 71.5625 55.351562 70.671875 C 55.34375 70.296875 55.5 69.917969 55.582031 69.472656 C 55.6875 69.402344 55.796875 69.40625 55.996094 69.492188 C 56.480469 69.96875 56.816406 70.316406 56.089844 70.777344 C 55.90625 70.894531 55.980469 71.433594 55.960938 71.777344 C 55.960938 71.8125 56.109375 71.859375 56.195312 71.902344 C 56.386719 71.679688 56.5625 71.480469 56.789062 71.21875 C 57.121094 71.605469 57.402344 71.933594 57.679688 72.320312 C 57.625 72.507812 57.578125 72.644531 57.472656 72.769531 C 56.851562 72.574219 56.144531 71.96875 56.039062 73.210938 Z M 56.039062 73.210938 " fill-opacity="1" fill-rule="nonzero"/><path fill="#c43af4" d="M 57.6875 72.265625 C 57.402344 71.933594 57.121094 71.605469 56.789062 71.21875 C 56.5625 71.480469 56.386719 71.679688 56.195312 71.902344 C 56.109375 71.859375 55.960938 71.8125 55.960938 71.777344 C 55.980469 71.433594 55.90625 70.894531 56.089844 70.777344 C 56.816406 70.316406 56.480469 69.96875 56.042969 69.515625 C 56.398438 69.425781 56.792969 69.390625 57.285156 69.417969 C 57.507812 69.5625 57.632812 69.648438 57.769531 69.796875 C 57.75 70.664062 57.71875 71.464844 57.6875 72.265625 Z M 57.6875 72.265625 " fill-opacity="1" fill-rule="nonzero"/><path fill="#c43af4" d="M 56.101562 73.214844 C 56.144531 71.96875 56.851562 72.574219 57.503906 72.828125 C 57.9375 72.9375 58.285156 72.976562 58.703125 73.011719 C 59.019531 72.941406 59.269531 72.871094 59.523438 72.800781 C 59.578125 73.027344 59.628906 73.230469 59.675781 73.433594 C 59.675781 73.507812 59.675781 73.578125 59.675781 73.703125 C 58.703125 73.761719 57.726562 73.765625 56.664062 73.757812 C 56.4375 73.566406 56.300781 73.394531 56.101562 73.214844 Z M 56.101562 73.214844 " fill-opacity="1" fill-rule="nonzero"/><path fill="#ba1df7" d="M 60.066406 70.476562 C 59.785156 70.65625 59.507812 70.835938 59.136719 71 C 59 70.9375 58.953125 70.886719 58.871094 70.78125 C 58.730469 70.289062 58.628906 69.855469 58.527344 69.421875 C 58.78125 69.410156 59.035156 69.398438 59.382812 69.453125 C 59.671875 69.835938 59.871094 70.15625 60.066406 70.476562 Z M 60.066406 70.476562 " fill-opacity="1" fill-rule="nonzero"/><path fill="#c43af4" d="M 58.457031 69.398438 C 58.628906 69.855469 58.730469 70.289062 58.820312 70.816406 C 58.742188 70.96875 58.679688 71.027344 58.570312 71.046875 C 58.316406 70.570312 58.117188 70.128906 57.925781 69.636719 C 57.9375 69.519531 57.945312 69.449219 57.953125 69.382812 C 58.097656 69.382812 58.242188 69.378906 58.457031 69.398438 Z M 58.457031 69.398438 " fill-opacity="1" fill-rule="nonzero"/><path fill="#d26df2" d="M 60.117188 70.433594 C 59.871094 70.15625 59.671875 69.835938 59.457031 69.457031 C 59.621094 69.390625 59.796875 69.382812 60.015625 69.429688 C 60.09375 69.785156 60.128906 70.085938 60.117188 70.433594 Z M 60.117188 70.433594 " fill-opacity="1" fill-rule="nonzero"/><path fill="#d26df2" d="M 57.875 69.363281 C 57.945312 69.449219 57.9375 69.519531 57.882812 69.648438 C 57.835938 69.710938 57.757812 69.730469 57.757812 69.730469 C 57.632812 69.648438 57.507812 69.5625 57.359375 69.425781 C 57.492188 69.363281 57.644531 69.355469 57.875 69.363281 Z M 57.875 69.363281 " fill-opacity="1" fill-rule="nonzero"/><path fill="#ebd5f8" d="M 19.386719 75.859375 C 18.953125 75.648438 18.59375 75.4375 18.195312 75.121094 C 18.152344 74.984375 18.152344 74.949219 18.152344 74.914062 C 18.296875 74.914062 18.441406 74.914062 18.742188 74.921875 C 20.871094 74.722656 22.847656 74.578125 24.808594 74.296875 C 25.929688 74.136719 26.082031 73.464844 25.296875 72.664062 C 24.859375 72.214844 24.460938 71.757812 24.71875 71.0625 C 26.394531 71.066406 28.066406 71.070312 29.835938 71.148438 C 30.203125 71.667969 30.519531 72.09375 30.734375 72.570312 C 31 73.152344 31.429688 73.824219 31.332031 74.371094 C 31.191406 75.128906 30.472656 75.648438 29.621094 75.679688 C 28.226562 75.730469 26.828125 75.710938 25.429688 75.746094 C 24.351562 75.773438 23.277344 75.835938 22.203125 75.882812 C 21.875 75.882812 21.550781 75.882812 21.117188 75.832031 C 20.832031 75.753906 20.652344 75.726562 20.46875 75.699219 C 20.132812 75.753906 19.796875 75.808594 19.386719 75.859375 Z M 19.386719 75.859375 " fill-opacity="1" fill-rule="nonzero"/><path fill="#c231f6" d="M 52.527344 72.804688 C 52.519531 73.089844 52.507812 73.371094 52.488281 73.734375 C 51.972656 73.8125 51.464844 73.808594 50.855469 73.71875 C 50.542969 73.207031 50.324219 72.777344 50.117188 72.347656 C 49.269531 70.59375 48.761719 70.390625 46.886719 70.761719 C 45.359375 71.0625 43.804688 71.230469 42.226562 71.394531 C 42.097656 70.667969 42.003906 70 41.90625 69.335938 C 45.257812 69.320312 48.609375 69.304688 52.050781 69.390625 C 52.269531 70.597656 52.398438 71.703125 52.527344 72.804688 Z M 52.527344 72.804688 " fill-opacity="1" fill-rule="nonzero"/><path fill="#c43af4" d="M 42.265625 71.460938 C 43.804688 71.230469 45.359375 71.0625 46.886719 70.761719 C 48.761719 70.390625 49.269531 70.59375 50.117188 72.347656 C 50.324219 72.777344 50.542969 73.207031 50.769531 73.699219 C 48.203125 73.71875 45.621094 73.671875 42.925781 73.546875 C 42.628906 72.800781 42.445312 72.132812 42.265625 71.460938 Z M 42.265625 71.460938 " fill-opacity="1" fill-rule="nonzero"/><path fill="#f3f2ef" d="M 22.273438 75.925781 C 23.277344 75.835938 24.351562 75.773438 25.429688 75.746094 C 26.828125 75.710938 28.226562 75.730469 29.621094 75.679688 C 30.472656 75.648438 31.191406 75.128906 31.332031 74.371094 C 31.429688 73.824219 31 73.152344 30.734375 72.570312 C 30.519531 72.09375 30.203125 71.667969 29.925781 71.148438 C 30.316406 71.074219 30.714844 71.070312 31.195312 71.066406 C 31.464844 71.386719 31.621094 71.730469 31.835938 72.027344 C 32.320312 72.703125 32.898438 73.324219 33.324219 74.035156 C 33.8125 74.851562 33.449219 75.738281 32.542969 76.039062 C 31.96875 76.230469 31.351562 76.457031 30.761719 76.433594 C 27.953125 76.324219 25.148438 76.128906 22.273438 75.925781 Z M 22.273438 75.925781 " fill-opacity="1" fill-rule="nonzero"/><path fill="#e2b6fb" d="M 24.628906 71.0625 C 24.460938 71.757812 24.859375 72.214844 25.296875 72.664062 C 26.082031 73.464844 25.929688 74.136719 24.808594 74.296875 C 22.847656 74.578125 20.871094 74.722656 18.816406 74.921875 C 19.0625 74.789062 19.386719 74.59375 19.730469 74.554688 C 20.648438 74.445312 21.582031 74.453125 22.488281 74.300781 C 22.839844 74.242188 23.238281 73.929688 23.417969 73.621094 C 23.511719 73.460938 23.191406 73.035156 23.019531 72.753906 C 22.703125 72.226562 22.355469 71.71875 22.019531 71.128906 C 22.859375 71.054688 23.699219 71.058594 24.628906 71.0625 Z M 24.628906 71.0625 " fill-opacity="1" fill-rule="nonzero"/><path fill="#c43af4" d="M 41.300781 73.6875 C 40.597656 73.714844 39.894531 73.742188 39.09375 73.675781 C 39.066406 72.167969 39.132812 70.75 39.203125 69.328125 C 39.53125 69.324219 39.863281 69.316406 40.277344 69.410156 C 40.671875 70.898438 40.988281 72.292969 41.300781 73.6875 Z M 41.300781 73.6875 " fill-opacity="1" fill-rule="nonzero"/><path fill="#d26df2" d="M 41.382812 73.699219 C 40.988281 72.292969 40.671875 70.898438 40.359375 69.421875 C 40.816406 69.328125 41.277344 69.320312 41.824219 69.324219 C 42.003906 70 42.097656 70.667969 42.226562 71.394531 C 42.445312 72.132812 42.628906 72.800781 42.84375 73.539062 C 42.40625 73.636719 41.933594 73.675781 41.382812 73.699219 Z M 41.382812 73.699219 " fill-opacity="1" fill-rule="nonzero"/><path fill="#d26df2" d="M 39.117188 69.320312 C 39.132812 70.75 39.066406 72.167969 39.007812 73.664062 C 38.675781 73.742188 38.332031 73.742188 37.863281 73.742188 C 37.792969 72.253906 37.726562 70.847656 37.652344 69.3125 C 38.222656 69.3125 38.628906 69.3125 39.117188 69.320312 Z M 39.117188 69.320312 " fill-opacity="1" fill-rule="nonzero"/><path fill="#c43af4" d="M 52.539062 72.714844 C 52.398438 71.703125 52.269531 70.597656 52.140625 69.40625 C 52.203125 69.289062 52.269531 69.257812 52.386719 69.21875 C 52.476562 70.347656 52.511719 71.484375 52.539062 72.714844 Z M 52.539062 72.714844 " fill-opacity="1" fill-rule="nonzero"/><path fill="#f6f9f7" d="M 39.558594 78.519531 C 39.320312 78.589844 39.050781 78.601562 38.699219 78.59375 C 38.921875 78.539062 39.226562 78.5 39.558594 78.519531 Z M 39.558594 78.519531 " fill-opacity="1" fill-rule="nonzero"/><path fill="#f6f9f7" d="M 37.632812 78.523438 C 37.449219 78.585938 37.242188 78.597656 36.957031 78.585938 C 37.121094 78.535156 37.363281 78.503906 37.632812 78.523438 Z M 37.632812 78.523438 " fill-opacity="1" fill-rule="nonzero"/><path fill="#f3f2ef" d="M 20.519531 75.734375 C 20.652344 75.726562 20.832031 75.753906 21.039062 75.832031 C 20.894531 75.847656 20.734375 75.808594 20.519531 75.734375 Z M 20.519531 75.734375 " fill-opacity="1" fill-rule="nonzero"/><path fill="#e2b6fb" d="M 18.132812 74.863281 C 18.152344 74.949219 18.152344 74.984375 18.152344 75.070312 C 17.972656 75.039062 17.796875 74.957031 17.589844 74.820312 C 17.746094 74.78125 17.925781 74.796875 18.132812 74.863281 Z M 18.132812 74.863281 " fill-opacity="1" fill-rule="nonzero"/><path fill="#d26df2" d="M 58.617188 71.082031 C 58.679688 71.027344 58.742188 70.96875 58.859375 70.871094 C 58.953125 70.886719 59 70.9375 59.078125 71.027344 C 59.109375 71.378906 59.109375 71.6875 59.109375 72.058594 C 59.59375 72.058594 60.019531 72.058594 60.808594 72.058594 C 60.367188 72.65625 60.074219 73.046875 59.730469 73.4375 C 59.628906 73.230469 59.578125 73.027344 59.523438 72.800781 C 59.269531 72.871094 59.019531 72.941406 58.707031 72.9375 C 58.636719 72.269531 58.628906 71.675781 58.617188 71.082031 Z M 58.617188 71.082031 " fill-opacity="1" fill-rule="nonzero"/><path fill="#ba1df7" d="M 58.570312 71.046875 C 58.628906 71.675781 58.636719 72.269531 58.644531 72.9375 C 58.285156 72.976562 57.9375 72.9375 57.554688 72.839844 C 57.578125 72.644531 57.625 72.507812 57.679688 72.320312 C 57.71875 71.464844 57.75 70.664062 57.769531 69.796875 C 57.757812 69.730469 57.835938 69.710938 57.875 69.699219 C 58.117188 70.128906 58.316406 70.570312 58.570312 71.046875 Z M 58.570312 71.046875 " fill-opacity="1" fill-rule="nonzero"/></svg>